<?xml version="1.0" encoding="UTF-8" standalone="no"?>
<svg
   width="96"
   height="96"
   viewBox="0 0 96 96"
   fill="none"
   version="1.1"
   id="svg7"
   xmlns="http://www.w3.org/2000/svg"
   xmlns:svg="http://www.w3.org/2000/svg">
  <path
     d="m 28,4 c -1.060805,1.603e-4 -2.078103,0.4216927 -2.828125,1.171875 -1.561694,1.562028 -1.561694,4.094222 0,5.65625 L 38.34375,24 H 16 C 9.4199636,24 4,29.419964 4,36 v 44 c 0,6.580036 5.4199636,12 12,12 h 24 c 2.209139,0 4,-1.790861 4,-4 0,-2.209139 -1.790861,-4 -4,-4 H 16 c -2.256564,0 -4,-1.743436 -4,-4 V 36 c 0,-2.256564 1.743436,-4 4,-4 h 32 32 c 2.256564,0 4,1.743436 4,4 v 16 c 0,2.209139 1.790861,4 4,4 2.209139,0 4,-1.790861 4,-4 V 36 C 92,29.419964 86.580036,24 80,24 H 57.65625 L 70.828125,10.828125 c 1.561694,-1.562028 1.561694,-4.094222 0,-5.65625 -1.562028,-1.5616944 -4.094222,-1.5616944 -5.65625,0 L 48,22.34375 30.828125,5.171875 C 30.078103,4.4216927 29.060805,4.0001603 28,4 Z"
     style="fill:#000000;stroke-linecap:round;stroke-linejoin:round"
     id="path8" />
  <path
     d="m 60,64 c -1.104569,0 -2,0.895431 -2,2 v 2 h -2 c -1.104569,0 -2,0.895431 -2,2 0,1.104569 0.895431,2 2,2 h 2 v 2 c 0,1.104569 0.895431,2 2,2 1.104569,0 2,-0.895431 2,-2 v -2 h 2 c 1.104569,0 2,-0.895431 2,-2 0,-1.104569 -0.895431,-2 -2,-2 h -2 v -2 c 0,-1.104569 -0.895431,-2 -2,-2 z"
     style="fill:#000000;stroke-linecap:round;stroke-linejoin:round"
     id="path9" />
  <path
     style="fill:#000000;stroke-linecap:round;stroke-linejoin:round"
     d="m 74,70 c -1.104569,0 -2,0.895431 -2,2 0,1.104569 0.895431,2 2,2 h 0.01953 c 1.104569,0 2,-0.895431 2,-2 0,-1.104569 -0.895431,-2 -2,-2 z"
     id="path5" />
  <path
     style="fill:#000000;stroke-linecap:round;stroke-linejoin:round"
     d="m 80,66 a 2,2 0 0 0 -2,2 2,2 0 0 0 2,2 h 0.01953 a 2,2 0 0 0 2,-2 2,2 0 0 0 -2,-2 z"
     id="path6" />
  <path
     style="fill:#000000;stroke-linecap:round;stroke-linejoin:round"
     d="m 57.359375,56 c -2.473703,6.25e-4 -4.860801,0.918917 -6.697266,2.576172 -1.834424,1.655538 -2.990811,3.93301 -3.246093,6.390625 -0.01475,0.129876 -0.02312,0.215337 -0.02734,0.246094 a 2.0002,2.0002 0 0 0 -0.0039,0.0332 c -0.0812,0.675643 -0.425825,3.5419 -0.75,6.634765 C 46.310591,74.973724 46,78.195206 46,80 c 0,2.12093 0.843867,4.1565 2.34375,5.65625 C 49.8435,87.156133 51.87907,88 54,88 c 2.666667,0 4.414063,-1.585938 5.414062,-2.585938 l 2.828125,-2.828125 C 62.617809,82.210216 63.125123,82.0001 63.65625,82 h 8.6875 c 0.531127,1e-4 1.038441,0.210216 1.414062,0.585937 l 2.828125,2.828125 c 1,1 2.747396,2.585938 5.414063,2.585938 2.12093,0 4.1565,-0.843867 5.65625,-2.34375 C 89.156133,84.1565 90,82.12093 90,80 c 0,-1.805626 -0.310589,-5.026512 -0.634766,-8.119141 -0.324176,-3.092628 -0.668816,-5.959238 -0.75,-6.634765 a 2.0002,2.0002 0 0 0 -0.0039,-0.03906 c -0.0028,-0.01992 -0.01146,-0.108469 -0.02539,-0.230469 -1.49e-4,-0.0015 -0.0018,-0.0025 -0.002,-0.0039 -0.253863,-2.459578 -1.410753,-4.73962 -3.246093,-6.396484 C 83.501351,56.918337 81.11483,56.000625 78.640625,56 Z m 0,4 h 21.28125 c 1.484696,8.57e-4 2.915401,0.551946 4.017578,1.546875 1.102578,0.995359 1.797366,2.362284 1.949219,3.839844 a 2.0002,2.0002 0 0 0 0.002,0.0293 c 0.0063,0.05379 0.01418,0.167998 0.03906,0.345703 0.0834,0.694056 0.419859,3.497416 0.738282,6.535156 C 85.707042,75.352747 86,78.715626 86,80 86,81.06167 85.578842,82.077475 84.828125,82.828125 84.077475,83.578842 83.06167,84 82,84 80.666667,84 80.414063,83.585937 79.414062,82.585937 L 76.585937,79.757812 C 75.461559,78.633134 73.934223,78.0003 72.34375,78 h -8.6875 c -1.590473,3e-4 -3.117809,0.633134 -4.242188,1.757812 l -2.828125,2.828125 C 55.585937,83.585937 55.333333,84 54,84 52.93833,84 51.922525,83.578842 51.171875,82.828125 50.421158,82.077475 50,81.06167 50,80 c 0,-1.283206 0.292956,-4.645037 0.613281,-7.701172 0.318707,-3.040696 0.655276,-5.852199 0.738281,-6.542969 l 0.0039,-0.0332 c 0.01879,-0.144766 0.02864,-0.256072 0.03516,-0.3125 a 2.0002,2.0002 0 0 0 0.002,-0.02539 c 0.152229,-1.477275 0.846668,-2.84481 1.949219,-3.839844 C 54.443849,60.550412 55.874976,60.000857 57.359375,60 Z"
     id="path7" />
</svg>
